HIERARCHY
ROOT Hips
{
	OFFSET	0.00	0.00	0.00
	CHANNELS 6 Xposition Yposition Zposition Zrotation Xrotation Yrotation
	JOINT LeftUpLeg
	{
		OFFSET	 0.126116	-0.014019	-0.065224
		CHANNELS 3 Zrotation Xrotation Yrotation
		JOINT LeftLeg
		{
			OFFSET	 0.000000	 0.000000	 0.569914
			CHANNELS 3 Zrotation Xrotation Yrotation
			JOINT LeftFoot
			{
				OFFSET	 0.000000	 0.000000	 0.544423
				CHANNELS 3 Zrotation Xrotation Yrotation
				JOINT LeftToeBase
				{
					OFFSET	 0.000000	 0.000000	 0.207117
					CHANNELS 3 Zrotation Xrotation Yrotation
					End Site
					{
						OFFSET	 0.000000	 0.000000	 0.207117
					}
				}
			}
		}
	}
	JOINT RightUpLeg
	{
		OFFSET	-0.124023	-0.008373	-0.065224
		CHANNELS 3 Zrotation Xrotation Yrotation
		JOINT RightLeg
		{
			OFFSET	 0.000000	 0.000000	 0.570047
			CHANNELS 3 Zrotation Xrotation Yrotation
			JOINT RightFoot
			{
				OFFSET	 0.000000	 0.000000	 0.544354
				CHANNELS 3 Zrotation Xrotation Yrotation
				JOINT RightToeBase
				{
					OFFSET	 0.000000	 0.000000	 0.207540
					CHANNELS 3 Zrotation Xrotation Yrotation
					End Site
					{
						OFFSET	 0.000000	 0.000000	 0.207540
					}
				}
			}
		}
	}
	JOINT Spine
	{
		OFFSET	 0.000184	-0.007763	 0.117403
		CHANNELS 3 Zrotation Xrotation Yrotation
		JOINT Spine1
		{
			OFFSET	 0.000000	 0.000000	 0.137269
			CHANNELS 3 Zrotation Xrotation Yrotation
			JOINT Spine2
			{
				OFFSET	 0.000000	 0.000000	 0.156879
				CHANNELS 3 Zrotation Xrotation Yrotation
				JOINT LeftShoulder
				{
					OFFSET	 0.080501	-0.002496	 0.160144
					CHANNELS 3 Zrotation Xrotation Yrotation
					JOINT LeftArm
					{
						OFFSET	 0.000000	 0.000000	 0.164363
						CHANNELS 3 Zrotation Xrotation Yrotation
						JOINT LeftForeArm
						{
							OFFSET	 0.000000	 0.000000	 0.364576
							CHANNELS 3 Zrotation Xrotation Yrotation
							JOINT LeftHand
							{
								OFFSET	 0.000000	 0.000000	 0.360812
								CHANNELS 3 Zrotation Xrotation Yrotation
								JOINT LeftHandIndex1
								{
									OFFSET	 0.000000	 0.000000	 0.086006
									CHANNELS 3 Zrotation Xrotation Yrotation
									JOINT LeftHandIndex2
									{
										OFFSET	 0.000000	 0.000000	 0.047236
										CHANNELS 3 Zrotation Xrotation Yrotation
										JOINT LeftHandIndex3
										{
											OFFSET	-0.004284	-0.000551	 0.038166
											CHANNELS 3 Zrotation Xrotation Yrotation
											End Site
											{
												OFFSET	-0.004284	-0.000551	 0.038166
											}
										}
									}
								}
							}
						}
					}
				}
				JOINT Neck
				{
					OFFSET	 0.000000	 0.000000	 0.176489
					CHANNELS 3 Zrotation Xrotation Yrotation
					JOINT Head
					{
						OFFSET	 0.000000	-0.001747	 0.077940
						CHANNELS 3 Zrotation Xrotation Yrotation
						End Site
						{
							OFFSET	 0.000000	-0.001747	 0.077940
						}
					}
				}
				JOINT RightShoulder
				{
					OFFSET	-0.080363	 0.000306	 0.159706
					CHANNELS 3 Zrotation Xrotation Yrotation
					JOINT RightArm
					{
						OFFSET	 0.000000	 0.000000	 0.164196
						CHANNELS 3 Zrotation Xrotation Yrotation
						JOINT RightForeArm
						{
							OFFSET	 0.000000	 0.000000	 0.365611
							CHANNELS 3 Zrotation Xrotation Yrotation
							JOINT RightHand
							{
								OFFSET	 0.000000	 0.000000	 0.360648
								CHANNELS 3 Zrotation Xrotation Yrotation
								JOINT RightHandIndex1
								{
									OFFSET	 0.000000	 0.000000	 0.069977
									CHANNELS 3 Zrotation Xrotation Yrotation
									JOINT RightHandIndex2
									{
										OFFSET	 0.000000	 0.000000	 0.052305
										CHANNELS 3 Zrotation Xrotation Yrotation
										JOINT RightHandIndex3
										{
											OFFSET	 0.009002	-0.000782	 0.042196
											CHANNELS 3 Zrotation Xrotation Yrotation
											End Site
											{
												OFFSET	 0.009002	-0.000782	 0.042196
											}
										}
									}
								}
							}
						}
					}
				}
			}
		}
	}
}
MOTION
Frames:    12
Frame Time: 0.03333334
-0.000490	 0.044490	 1.278156	-0.039913	 3.254908	 0.446831	-4.870656	-5.468228	 178.988500	 2.140920	-11.084400	 0.491997	-0.131079	 70.158970	 0.078270	-2.385833	 28.452750	 0.000004	 12.302090	-4.914164	-178.901700	-0.800528	-9.405894	 0.711547	 4.952868	 69.074690	 1.370060	 2.384659	 28.388700	-0.000001	-6.153175	 6.797073	 1.517485	-3.142424	-5.619720	-0.585210	 9.585075	 8.305025	-0.774937	-90.995510	 68.615680	-177.444500	-7.090086	 0.862168	-1.042228	 23.463130	-7.967980	-31.076790	-7.559084	-22.579800	-4.714621	-2.027600	 6.559038	 9.033609	-5.188889	 0.308190	 3.541030	-5.234859	 0.342567	 0.430617	 4.695482	 20.924110	-7.673474	 4.968701	-16.162800	 2.278281	 88.763850	 66.976430	 176.886300	 8.161787	 4.899520	 10.980310	-27.621210	-5.879556	 15.743660	 4.718827	-22.003130	 5.906498	 1.803333	 3.979147	-15.098590	 4.898592	 3.004813	-9.310344	 5.224449	 0.395017	 2.014677
-0.000975	 0.046850	 1.279176	 0.028776	 4.071386	 0.475890	-5.124032	-6.008776	 178.831400	 2.088268	-10.161470	 0.451587	-0.470273	 69.604330	 0.435484	-2.385833	 28.452750	 0.000004	 12.278100	-5.204927	-178.686900	-0.814254	-8.007776	 0.604613	 4.853772	 68.201610	 1.460408	 2.384659	 28.388700	-0.000001	-5.950016	 7.157826	 1.608744	-3.155193	-7.446206	-0.872099	 9.379440	 10.010710	-0.879113	-90.890210	 67.882260	-177.240700	-6.731946	 0.680457	-1.510949	 22.920160	-7.886397	-31.945460	-6.506427	-23.890670	-5.259732	-2.027600	 6.559038	 9.033609	-5.188889	 0.308190	 3.541030	-5.234859	 0.342567	 0.430617	 4.731193	 23.166410	-8.319998	 5.195824	-18.091470	 2.424860	 88.561090	 65.558940	 176.552800	 7.446669	 3.785020	 11.726280	-27.448610	-6.123345	 16.506280	 3.146172	-22.682380	 5.568144	 1.803333	 3.979147	-15.098590	 4.898592	 3.004813	-9.310344	 5.224449	 0.395017	 2.014677
-0.001973	 0.053242	 1.281363	 0.197289	 6.107034	 0.592282	-5.533240	-7.306376	 178.391900	 2.104557	-7.703812	 0.338172	-1.256595	 68.127350	 1.303154	-2.385832	 28.452790	-0.000001	 12.022190	-4.807820	-178.091200	-1.265693	-2.140709	 0.145178	 4.729807	 64.884850	 2.009688	 2.384659	 28.388700	-0.000001	-5.283107	 7.793614	 1.656554	-3.192999	-11.769240	-1.411237	 8.562050	 13.636560	-1.110265	-90.836040	 65.934880	-177.384300	-5.319228	 0.522775	-1.570719	 20.702590	-7.011814	-34.175520	-5.885238	-26.326520	-7.006382	-2.027600	 6.559038	 9.033609	-5.188889	 0.308190	 3.541030	-5.234859	 0.342567	 0.430617	 4.370257	 26.131810	-8.814330	 5.183826	-20.880120	 2.414562	 88.390660	 62.462120	 176.581200	 5.493848	 1.907065	 12.250380	-26.321920	-6.439878	 18.362520	 0.335053	-23.795890	 5.597925	 1.803333	 3.979147	-15.098590	 4.898592	 3.004813	-9.310344	 5.224449	 0.395017	 2.014677
-0.002424	 0.062982	 1.281801	 0.600818	 8.878005	 0.652496	-6.305805	-10.353680	 177.832100	 1.970601	-6.826644	 0.283913	-2.004658	 66.945560	 2.266739	-2.385833	 28.452760	 0.000004	 11.599620	-7.378374	-177.448100	-1.614717	-0.513174	 0.031673	 5.686064	 63.570670	 1.303851	 2.384659	 28.388700	-0.000001	-4.433128	 7.715112	 1.478181	-3.187108	-16.958940	-1.831666	 7.219789	 17.128750	-1.068735	-91.578030	 64.802440	-179.478300	-2.822592	 2.375671	 1.641920	 18.779910	-6.303237	-37.066680	-6.205014	-27.899560	-9.092700	-2.027600	 6.559038	 9.033609	-5.188889	 0.308190	 3.541030	-5.234859	 0.342567	 0.430617	 3.670926	 26.980250	-8.735317	 4.535167	-22.291120	 2.251896	 89.065380	 60.908630	 178.335200	 2.390077	 3.078385	 9.650207	-25.136880	-6.847592	 20.730830	-2.157648	-24.832790	 5.928973	 1.803333	 3.979147	-15.098590	 4.898592	 3.004813	-9.310344	 5.224449	 0.395017	 2.014677
-0.002778	 0.075992	 1.280226	 0.957542	 12.181710	 0.589468	-7.099730	-15.391500	 177.214700	 2.011894	-8.513816	 0.359736	-3.120689	 67.060010	 3.480550	-2.385832	 28.452790	-0.000001	 11.368400	-11.461570	-176.601200	-1.881563	-0.514078	 0.029328	 6.955266	 63.030020	 0.155161	 2.384659	 28.388700	-0.000001	-3.434965	 6.898604	 1.319109	-2.893230	-20.769900	-1.945018	 5.556386	 19.332000	-0.472670	-92.714490	 65.150010	 177.489500	-0.155405	 6.672940	 6.018957	 18.596400	-6.886082	-40.160450	-5.558298	-28.997480	-9.985307	-2.027600	 6.559038	 9.033609	-5.188889	 0.308190	 3.541030	-5.234859	 0.342567	 0.430617	 3.055540	 25.105460	-9.033094	 3.360489	-22.037320	 1.824595	 90.196800	 60.250710	-179.057400	-0.626786	 6.790242	 6.119246	-23.428390	-6.943196	 23.164140	-3.263532	-26.198940	 6.222731	 1.803333	 3.979147	-15.098590	 4.898592	 3.004813	-9.310344	 5.224449	 0.395017	 2.014677
-0.004593	 0.096997	 1.278996	 2.649570	 17.871910	 0.668335	-9.638885	-23.184140	 175.330900	 2.977293	-9.659348	 0.570098	-5.791938	 65.549580	 5.489459	-2.385833	 28.452760	 0.000004	 9.759593	-18.480140	-175.901100	-1.530888	-0.513231	 0.032427	 7.307733	 61.022580	-0.718309	 2.384659	 28.388700	-0.000001	-2.756036	 4.890492	 0.880582	-3.021801	-23.059850	-1.869490	 3.310569	 19.410570	-0.219783	-93.757760	 65.472690	 174.616400	 4.258718	 12.575210	 9.071823	 18.335950	-7.567666	-43.777270	-4.658743	-29.394140	-10.523420	-2.027600	 6.559038	 9.033609	-5.188889	 0.308190	 3.541030	-5.234859	 0.342567	 0.430617	 2.554435	 24.216590	-8.132498	 1.709072	-22.564340	 1.143526	 91.431370	 60.791400	-176.184800	-4.195753	 12.538960	 3.726919	-21.939140	-6.930485	 25.352350	-3.926790	-26.963040	 6.912863	 1.803333	 3.979147	-15.098590	 4.898592	 3.004813	-9.310344	 5.224449	 0.395017	 2.014677
-0.006627	 0.115818	 1.276452	 4.089289	 21.875820	 0.383620	-11.825980	-28.683710	 173.812400	 3.582146	-10.131010	 0.704479	-7.622935	 64.759900	 6.930549	-2.385833	 28.452750	 0.000004	 8.644761	-25.584390	-175.426700	-2.049355	-4.629579	 0.250205	 9.256442	 62.052860	-2.423767	 2.384659	 28.388700	-0.000001	-2.066156	 4.802186	 0.680548	-2.939551	-23.287530	-1.156106	 1.449027	 19.123250	-0.384762	-94.363300	 66.458910	 172.605600	 8.301094	 18.678220	 7.415810	 18.356380	-8.033294	-45.401340	-4.208878	-30.235350	-10.951170	-2.027600	 6.559038	 9.033609	-5.188889	 0.308190	 3.541030	-5.234859	 0.342567	 0.430617	 2.100644	 23.557150	-6.771395	-0.006043	-23.170900	 0.106467	 92.294150	 61.710380	-174.002200	-6.855380	 18.204620	 5.182956	-21.445780	-6.857977	 25.936370	-3.939869	-27.618910	 7.543200	 1.803333	 3.979147	-15.098590	 4.898592	 3.004813	-9.310344	 5.224449	 0.395017	 2.014677
-0.009062	 0.133006	 1.269856	 4.154202	 23.794990	 0.188423	-12.451830	-33.592690	 173.020500	 3.635316	-14.837210	 1.039193	-8.925145	 66.716280	 8.442695	-2.385833	 28.452750	 0.000004	 9.220716	-32.155140	-174.890500	-2.240005	-12.984720	 0.653547	 12.343020	 65.643210	-5.673535	 2.384659	 28.388700	-0.000001	-0.742628	 8.160402	 0.493940	-1.915905	-20.713810	 0.214505	-0.171883	 18.899840	-0.449051	-94.557790	 69.058330	 170.612900	 12.258060	 23.863320	 0.529850	 18.371490	-8.470377	-46.851460	-4.156856	-32.114520	-11.300010	-2.027600	 6.559038	 9.033609	-5.188889	 0.308190	 3.541030	-5.234859	 0.342567	 0.430617	 1.372791	 22.234150	-6.035941	-1.730744	-23.537900	-0.714599	 92.902980	 63.228660	-172.101500	-9.553399	 24.041240	 11.626020	-20.647040	-6.672645	 26.724410	-1.964800	-29.487250	 8.858452	 1.803333	 3.979147	-15.098590	 4.898592	 3.004813	-9.310344	 5.224449	 0.395017	 2.014677
-0.010995	 0.153888	 1.263441	 3.597454	 25.954840	-0.339459	-11.957340	-38.488040	 172.971100	 3.957407	-18.463740	 1.387675	-10.233590	 67.665280	 9.893454	-2.385833	 28.452750	 0.000004	 11.035110	-37.887970	-173.118400	-3.407771	-18.788350	 0.560082	 16.872300	 67.673420	-9.343739	 2.384659	 28.388700	-0.000001	 0.702156	 11.311070	-0.068217	-0.284539	-15.131870	 2.260821	-1.788267	 17.347310	-0.609844	-94.825490	 70.159980	 168.753800	 13.548740	 24.211080	-6.119526	 17.663150	-8.584198	-49.944080	-5.050220	-34.706970	-11.720910	-2.027600	 6.559038	 9.033609	-5.188889	 0.308190	 3.541030	-5.234859	 0.342567	 0.430617	 0.440107	 22.103770	-4.821850	-3.559058	-24.871540	-2.161154	 93.388020	 64.953360	-170.144800	-12.406550	 27.124790	 20.754930	-19.499650	-6.309912	 27.649790	 0.672754	-31.632060	 10.405890	 1.803333	 3.979147	-15.098590	 4.898592	 3.004813	-9.310344	 5.224449	 0.395017	 2.014677
-0.013645	 0.184176	 1.254800	 3.867993	 28.406520	-1.670146	-11.476910	-43.758600	 173.517300	 4.639507	-19.346200	 1.678826	-11.200540	 66.003620	 10.759880	-2.385833	 28.452750	 0.000004	 13.275050	-44.425590	-169.903000	-5.398755	-22.925830	-0.098350	 20.857630	 67.253120	-11.767860	 2.384659	 28.388700	-0.000001	 1.885397	 12.478520	-0.723343	 0.709506	-8.644035	 3.280082	-3.655106	 15.295310	 0.087812	-95.450480	 69.547790	 167.141700	 11.104980	 20.963720	-9.344191	 16.831700	-8.657660	-53.649150	-6.051403	-36.860210	-11.864810	-2.027600	 6.559038	 9.033609	-5.188889	 0.308190	 3.541030	-5.234859	 0.342567	 0.430617	 0.001871	 24.464180	-4.469103	-5.140958	-28.167320	-3.777037	 94.450330	 63.827280	-167.902000	-12.415020	 24.448780	 24.651060	-18.109390	-6.578038	 31.825480	 2.311375	-32.590680	 11.724290	 1.803333	 3.979147	-15.098590	 4.898592	 3.004813	-9.310344	 5.224449	 0.395017	 2.014677
-0.019976	 0.207221	 1.238496	 4.278202	 30.934530	-3.632813	-10.445640	-49.931580	 174.751400	 5.115410	-22.897690	 2.158102	-12.515700	 66.047620	 12.273670	-2.385833	 28.452750	 0.000004	 16.863520	-50.663690	-165.522300	-7.165670	-28.131680	-0.952449	 24.981520	 68.216310	-14.702570	 2.384659	 28.388700	-0.000001	 3.065396	 12.905350	-0.789519	 1.443045	-0.353138	 1.637983	-5.455289	 12.033380	 2.319764	-95.958890	 69.353460	 165.601100	 8.554136	 17.918350	-14.403120	 16.404540	-8.477393	-54.995700	-7.024941	-38.609740	-11.930240	-2.027600	 6.559038	 9.033609	-5.188889	 0.308190	 3.541030	-5.234859	 0.342567	 0.430617	 0.312630	 26.979730	-5.419233	-6.285671	-31.455720	-4.626801	 95.794670	 61.533590	-165.785100	-10.782520	 19.403550	 27.261190	-16.735280	-5.979892	 33.088500	 3.880989	-33.151460	 13.098130	 1.803333	 3.979147	-15.098590	 4.898592	 3.004813	-9.310344	 5.224449	 0.395017	 2.014677
-0.030421	 0.223029	 1.207933	 4.976746	 32.974690	-5.386652	-10.240930	-58.203540	 174.927400	 5.480821	-32.477760	 3.174693	-15.242850	 69.542020	 15.900300	-2.385833	 28.452750	 0.000004	 22.456810	-58.580460	-159.963700	-8.431755	-38.522730	-2.047659	 31.168720	 71.565870	-20.526470	 2.384659	 28.388700	-0.000001	 3.461047	 13.340810	-0.623548	 1.509923	 8.167271	-0.281205	-6.643464	 8.715187	 4.010496	-96.223800	 69.671700	 164.307800	 5.545929	 14.711210	-20.334960	 16.475070	-8.436923	-54.544070	-7.444635	-39.579060	-11.742320	-2.027600	 6.559038	 9.033609	-5.188889	 0.308190	 3.541030	-5.234859	 0.342567	 0.430617	 0.662973	 28.611300	-5.834539	-7.348210	-33.696120	-5.510867	 96.830130	 59.787080	-164.292300	-7.928340	 13.881760	 32.255050	-15.782450	-5.026990	 31.521290	 5.050949	-33.768650	 13.872090	 1.803333	 3.979147	-15.098590	 4.898592	 3.004813	-9.310344	 5.224449	 0.395017	 2.014677
